Motion_pl04
version=1
nRows=6
nColumns=43
inDegrees=yes
endheader
time	pelvis_tilt	pelvis_list	pelvis_rotation	pelvis_tx	pelvis_ty	pelvis_tz	hip_flexion_r	hip_adduction_r	hip_rotation_r	knee_angle_r	ankle_angle_r	subtalar_angle_r	mtp_angle_r	hip_flexion_l	hip_adduction_l	hip_rotation_l	knee_angle_l	ankle_angle_l	subtalar_angle_l	mtp_angle_l	lumbar_extension	lumbar_bending	lumbar_rotation	neck_flexion	neck_lateral_bending	neck_rotation	arm_flex_r	arm_add_r	arm_rot_r	elbow_flex_r	pro_sup_r	wrist_flex_r	wrist_dev_r	hand_finger_flex_r	arm_flex_l	arm_add_l	arm_rot_l	elbow_flex_l	pro_sup_l	wrist_flex_l	wrist_dev_l	hand_finger_flex_l
      0.58000000	      2.98779238	    -18.37006864	     90.49430506	      0.04419337	      1.88668735	      1.35973872	     50.42937383	      6.11237073	      3.59023281	    -94.51843970	     -4.81473360	     -7.73777584	     -2.67913519	     59.80580969	     -9.44261735	      1.54088836	    -96.23363620	     -3.77363306	     -1.71355878	     28.64082157	    -32.02692685	      0.45714499	     -0.37244856	     11.54868803	     -1.32994932	      3.34712860	     86.22638479	    -18.66796393	     21.08092655	     69.96115230	    125.89700789	      0.79890218	      1.31340971	    -14.46913807	     88.71070289	    -20.78468866	     22.94446921	     71.01346395	    118.98180186	     -6.96838376	      5.86258412	     16.00158788
      0.58250000	      3.01056309	    -18.26374988	     90.44766796	      0.04401087	      1.88576997	      1.35570125	     50.62694257	      6.07590115	      3.54328158	    -94.09985979	     -4.78073700	     -7.74773495	     -2.69372865	     59.91029618	     -9.41204731	      1.51987447	    -95.70336244	     -3.78606211	     -1.65818389	     28.69058360	    -32.20112143	      0.47314608	     -0.27114051	     11.62709617	     -1.32067581	      3.35418759	     85.89929522	    -18.73574803	     21.20775434	     69.79896297	    125.90734709	      0.84393714	      1.33215913	    -14.46160831	     88.31088822	    -20.87294264	     23.07640170	     70.88525509	    118.99966617	     -6.90594541	      5.88135519	     16.02001958
      0.58500000	      3.01830574	    -18.17452546	     90.41059448	      0.04379994	      1.88482028	      1.35164516	     50.81451214	      6.05365587	      3.52163384	    -93.62568997	     -4.73436741	     -7.78380127	     -2.70904855	     60.02935502	     -9.36268130	      1.48608802	    -95.16078119	     -3.81353881	     -1.53779549	     28.75202059	    -32.36121104	      0.48264926	     -0.18363708	     11.71508739	     -1.32462000	      3.35280050	     85.55700771	    -18.81251548	     21.32155448	     69.63347101	    125.91872612	      0.87415313	      1.35131705	    -14.46381452	     87.87627765	    -20.95178082	     23.17964706	     70.78635539	    119.00638549	     -6.85586132	      5.89366035	     16.03484169
      0.58750000	      2.98327768	    -18.30537922	     90.31178017	      0.04368147	      1.88342133	      1.34769341	     51.24085953	      6.07881353	      3.55736201	    -93.15729553	     -4.70289714	     -8.24692790	     -2.94608683	     60.38826079	     -9.37427742	      1.51056723	    -94.63606718	     -3.82169223	     -0.19433442	     29.82616981	    -32.27834821	      0.47712002	     -0.12617302	     11.85100841	     -1.57945906	      3.29362545	     85.12617099	    -18.75977389	     21.42946639	     69.47591754	    126.05248323	      0.61654407	      1.34038532	    -14.76351003	     87.01952052	    -20.93212390	     22.59102771	     70.92731735	    119.03927747	     -6.80729325	      5.82052551	     16.01098299
      0.59000000	      3.00146610	    -18.20213806	     90.26111201	      0.04358774	      1.88229668	      1.34364099	     51.44178699	      6.05717048	      3.49664934	    -92.72114866	     -4.68173563	     -8.24007865	     -2.95643100	     60.47229884	     -9.34499223	      1.49574410	    -94.07925015	     -3.83160494	     -0.15379827	     29.87274930	    -32.44419926	      0.47472721	     -0.03643888	     11.92709823	     -1.56264191	      3.29302406	     84.76377971	    -18.82986121	     21.57634505	     69.30312978	    126.07323338	      0.66486894	      1.36851576	    -14.76232273	     86.59121568	    -21.03163180	     22.72759988	     70.79493176	    119.05936962	     -6.74847707	      5.84130986	     16.02775331
      0.59250000	      3.01157921	    -18.11766242	     90.22172699	      0.04344956	      1.88116586	      1.33960236	     51.63166636	      6.04022870	      3.46213563	    -92.22328504	     -4.64898405	     -8.24551854	     -2.96446095	     60.56876600	     -9.31548895	      1.45884905	    -93.50087589	     -3.86839921	     -0.07042969	     29.92071727	    -32.60110256	      0.47459537	      0.04269780	     12.00945384	     -1.54967165	      3.28444246	     84.38947696	    -18.91078131	     21.71564620	     69.14440573	    126.10236012	      0.69573937	      1.39975699	    -14.77200573	     86.12984134	    -21.13317244	     22.83471220	     70.70048070	    119.07233050	     -6.70779324	      5.85517020	     16.04013172
